<?xml version="1.0" encoding="utf-8"?>
<!-- Generator: Adobe Illustrator 27.8.1, SVG Export Plug-In . SVG Version: 6.00 Build 0)  -->
<svg version="1.1" id="Calque_1" xmlns="http://www.w3.org/2000/svg" xmlns:xlink="http://www.w3.org/1999/xlink" x="0px" y="0px"
	 viewBox="0 0 595.28 841.89" style="enable-background:new 0 0 595.28 841.89;" xml:space="preserve">
<style type="text/css">
	.st0{fill:url(#SVGID_1_);stroke:#020203;stroke-miterlimit:10;}
	.st1{fill:none;}
	.st2{font-family:'MyriadPro-Regular';}
	.st3{font-size:21.685px;}
	.st4{fill:#F9B233;stroke:#020203;stroke-miterlimit:10;}
	.st5{fill:#FFED00;stroke:#020203;stroke-miterlimit:10;}
	.st6{font-size:16.4806px;}
	.st7{fill:#95C11F;stroke:#020203;stroke-miterlimit:10;}
	.st8{font-size:19px;}
	.st9{fill:#DEDC00;stroke:#020203;stroke-miterlimit:10;}
	.st10{font-size:16px;}
	.st11{fill:#F39200;stroke:#020203;stroke-miterlimit:10;}
	.st12{font-size:15px;}
	.st13{fill:#CA9E67;stroke:#020203;stroke-miterlimit:10;}
	.st14{font-size:13px;}
	.st15{font-size:12px;}
	.st16{fill:url(#SVGID_00000009581428665464231190000007769473088280638868_);stroke:#020203;stroke-miterlimit:10;}
	.st17{fill:url(#SVGID_00000121278202637349761650000001796469467822070194_);stroke:#020203;stroke-miterlimit:10;}
	.st18{font-size:17px;}
</style>
<g>
	<linearGradient id="SVGID_1_" gradientUnits="userSpaceOnUse" x1="155.189" y1="48.3419" x2="371.689" y2="48.3419">
		<stop  offset="0" style="stop-color:#FFEF26"/>
		<stop  offset="0.0595" style="stop-color:#FFE000"/>
		<stop  offset="0.1303" style="stop-color:#FFD300"/>
		<stop  offset="0.2032" style="stop-color:#FECB00"/>
		<stop  offset="0.2809" style="stop-color:#FDC800"/>
		<stop  offset="0.6685" style="stop-color:#F18F34"/>
		<stop  offset="0.8876" style="stop-color:#E95F32"/>
		<stop  offset="1" style="stop-color:#E3312D"/>
	</linearGradient>
	<path class="st0" d="M155.19,35.64l12.25,4.12l13.07-4.12l6.54,4.12h5.72l4.08,4.81l7.35,6.87h8.99h13.89c0,0-5.72,5.49,0,6.18
		c5.72,0.69,14.71,5.49,14.71,5.49l10.62,4.12h12.25l11.44,6.87l7.35,3.43l8.17,8.24l17.97,8.93h7.05V83.71v-6.87l10.93-2.06
		l5.72-9.62v-5.49v-10.3l4.08-6.87l7.35-6.87h5.72v3.43l7.35-9.62h8.17V21.9l5.72-4.12l-4.08-6.87l-8.99-8.93h-12.25l-8.99,1.37
		l-8.17,4.12L316.64,6.1l-13.58-4.12l-8.99,5.49l-3.27,8.93l-4.9,4.81l-5.72-7.56l-5.72-7.56l-3.27-4.12h-7.76h-12.66h-11.44
		l-13.07,5.49l-4.08,4.81l-7.35,0.69h-17.97l-4.9-4.81l-14.71,3.43l-13.07,3.43l-4.08,1.37l-4.9,3.43v6.87V35.64z"/>
	<rect x="242.5" y="32.71" class="st1" width="158" height="37.3"/>
	<text transform="matrix(1.1529 0 0 1 242.5 48.1037)" class="st2 st3">ABOBO</text>
	<path class="st4" d="M384.36,26.25c6.03-1.53,9.46-2.35,13.28-1.26c7.84,2.25,6.49,9.53,14.93,14.47c8.35,4.88,14.1,0.37,21.57,4.4
		c10.84,5.85,2.63,17.46,13.28,30.19c7.58,9.06,13.48,5.28,24.06,15.1c15.91,14.76,17.42,37.11,17.42,37.11l0,0
		c0,0-5.18,3.95-6.64,7.55c-2,4.95,3.99,6.95,4.15,13.84c0.12,4.99-2.86,11.09-7.47,11.95c-3.31,0.62-5.03-1.91-13.28-6.29
		c-12.61-6.7-17.61-5.56-21.57-10.69c-3.39-4.39-1.66-7.72-4.98-8.81c-3.75-1.23-9.65,1.79-12.45,5.03
		c-2.77,3.21-2.59,6.76-2.49,8.81c0.07,1.3,0.18,3.56,1.67,6.14c0.95,1.63,1.92,2.47,1.65,2.67c-0.84,0.61-8.94-8.39-17.42-7.55
		c-2.81,0.28-7.21,1.8-8.3,0.63c-0.03-0.04-0.1-0.12-0.16-0.26c-0.96-2.19,5.1-5.96,4.31-7.29c-1.05-1.77-15.15-1.02-17.42,3.77
		c-2.01,4.25,6.1,9.96,4.98,10.69c-1.01,0.66-6.37-4.73-15.76-6.29c-4.65-0.77-9.53-0.48-9.96,0.63c-0.45,1.17,4.52,2.16,7.47,6.29
		c0.94,1.32,3.05,4.27,1.66,6.29c-2.61,3.8-14.24-0.54-21.57,4.4c-4.36,2.94-2.24,5.82-6.64,8.18c-5.51,2.95-14.76,1.59-20.74-1.26
		c-7.27-3.46-6.4-7.52-12.45-8.81c-6.69-1.42-11.68,2.73-14.93,0.63c-2.51-1.62-1.72-5.49-0.83-7.55c2.36-5.49,8.32-4.95,10.79-9.44
		c3.56-6.47-5.92-12.82-1.66-16.98c2.37-2.32,6.02-1.03,8.3-3.77c2.53-3.04-0.92-5.88,1.66-8.81c2.35-2.67,6.12-1.34,8.3-3.77
		c2.88-3.21-2.7-6.64-0.83-11.95c1.7-4.82,7.17-4.48,8.3-8.81c1.42-5.47-6.6-8.9-4.15-12.58c1.9-2.86,9.13-4.4,9.13-4.4l0,0
		c0,0,3.54-4.07,4.98-8.81c1.37-4.51,0.54-8.59,0.15-10.13c-0.08-0.32-0.11-0.4-0.15-0.56c-1.43-5.58,6.25-12.63,8.3-14.47
		C359.99,38.08,368.77,30.2,384.36,26.25z"/>
	<rect x="353.44" y="101.05" class="st1" width="136" height="37.3"/>
	<text transform="matrix(1.1529 0 0 1 353.4434 116.4451)" class="st2 st3">COCODY</text>
	<path class="st5" d="M373.5,206.18l16.05-6.14v-19.2l22.17-29.95h12.01l19.4-16.89l18.48,16.89l15.7,7.68h6.47h4.62l6.47,1.54v6.91
		l7.39,3.07v12.29l4.62,6.14v4.61v19.97v9.98l7.39,13.05c0,0,9.24-0.77,12.01,0c2.77,0.77,4.62,6.91,5.54,9.21
		c0.92,2.3,4.62,9.21,4.62,9.21l6.47,8.45l5.54,6.91v15.36l-20.32,10.75l-18.48-14.96l-7.39-8.07c0,0-15.7-1.54-18.48-0.77
		c-2.77,0.77-0.92,8.84-0.92,8.84v7.28l-8.31,3.84l-6.47-6.91c0,0-2.19-2.3-7.1,1.54s-6.75-10.75-6.75-10.75h-16.63
		c0,0,4.62,6.91,6.47,9.98s1.85,3.07,1.85,3.07l-8.31,6.91l-9.24-14.96h-6.47l-4.62,8.05l-18.48-15.36l-3.7-10.75l1.85-9.98
		l7.39-15.36l-24.02-3.07l-6.81,2.3l-5.2-1.54v-7.68v-9.98L373.5,206.18z"/>
	<rect x="392.44" y="207.3" class="st1" width="117" height="36.43"/>
	<text transform="matrix(1.1529 0 0 1 392.4434 218.9962)" class="st2 st6">BINGERVILLE</text>
	<g>
		<path class="st7" d="M131.61,31.81h5.38h6.46l7.54,9.54h5.38h14h14l7.54,12.14h12.92l10.77,6.94h16.15l10.77,11.28l6.46,6.07
			v13.01l-9.69,9.54l2.15,15.61l-4.31,6.94h-7.54l1.08,9.54l-2.15,17.35c0,0-1.08,13.04,3.23,12.59c4.31-0.45,1.08,10.83,1.08,10.83
			l9.69,5.2l-8.62,12.14h-12.92l-10.77-5.2l-4.31-18.22l-5.38-8.67l-10.23-5.2h-5.92l-7.54-1.73h-9.69l-12.92-5.2l-7.54,2.6
			l-20.46-2.6l-12.92-6.94l-5.38,0.87l8.62-9.54l-8.62-7.81v-5.2l-5.38-1.73l-11.85,4.34l-7.54-0.87l-7.54-8.24H54.07l-8.62-4.77
			l-6.46-7.81l6.46-9.54l-6.46-11.28l6.46-10.41l10.77-1.73l18.31,6.94l10.77,1.73L97.14,58.7l6.46-5.2l7.54-0.87L131.61,31.81z"/>
	</g>
	<rect x="117.12" y="94.81" class="st1" width="99.88" height="21.64"/>
	<text transform="matrix(1 0 0 1 117.123 108.2984)" class="st2 st8">ATTECOUBE</text>
	<polygon class="st9" points="259.91,66.85 317.85,96.85 311.28,108.85 317.85,116.85 304.28,129.85 293.77,146.85 288.88,153.85 
		288.88,169.36 282.1,179.85 276.26,184.85 278.59,189.85 271.59,198.85 278.59,209.85 268.09,209.85 248.24,209.85 248.24,191.85 
		255.24,182.85 248.24,178.85 248.24,169.36 242.4,154.85 242.4,134.85 242.4,121.85 254.08,111.85 250.57,99.85 	"/>
	<rect x="263.38" y="81.05" class="st1" width="16.75" height="139.94"/>
	<text transform="matrix(1 0 0 1 263.375 92.4086)"><tspan x="0" y="0" class="st2 st10">A</tspan><tspan x="0" y="19.2" class="st2 st10">D</tspan><tspan x="0" y="38.4" class="st2 st10">J</tspan><tspan x="0" y="57.6" class="st2 st10">A</tspan><tspan x="0" y="76.8" class="st2 st10">M</tspan><tspan x="0" y="96" class="st2 st10">E</tspan></text>
	<path class="st11" d="M54.11,120.17c5.38,0.44,4.65,3.42,15.52,7.23c8.3,2.91,18.26,4.52,18.26,4.52l0,0c0,0,5.83,4.24,11.87,5.42
		c6.39,1.25,8.22-1.85,10.95,0c5.3,3.57,2.74,18.08,2.74,18.08l0,0c0,0,4.73,4.53,8.22,7.23c5.05,3.91,9.34,7.24,14.61,7.23
		c6.56-0.01,8.07-5.18,13.69-4.52c5.2,0.61,5.34,5.2,10.95,8.14c10.1,5.29,18.75-4.78,27.39,0c5.48,3.03,7.15,9.93,9.13,18.08
		c2.61,10.76-0.4,13.32,2.74,22.6c2.69,7.97,7.37,13.37,9.13,15.37c6.41,7.28,9.11,5.77,15.52,13.56c4.26,5.19,4.87,8.04,9.13,9.95
		c3.64,1.63,8.33,1.84,10.75,1.61c2.04-0.19,3.76-0.67,3.76-0.67c2.02-0.56,2.71-1.1,2.83-0.95c0.42,0.54-6.24,10.33-16.43,11.75
		c-6.06,0.85-11.18-1.57-15.52-3.62c-5.49-2.59-11.87-7.23-11.87-7.23l0,0c0,0-9.41-0.59-12.78-0.9c-2.53-0.24-14.5-1.35-24.65-7.23
		c-12.05-6.98-15.55-17.23-17.35-16.27c-1.81,0.97,0.75,12.05,7.3,20.8c2.85,3.81,6.92,7.78,8.22,9.04
		c6.73,6.57,10.58,8.55,10.04,10.85c-0.58,2.46-5.79,3.48-9.13,3.62c-6.37,0.25-10.66-2.55-21.91-9.04
		c-8.92-5.15-13.39-7.72-14.61-8.14c-2.08-0.71-16.26-5.52-28.3,0.9c-6.71,3.58-7.63,7.92-15.52,9.95
		c-1.14,0.29-8.65,2.22-10.95-0.9c-0.51-0.69-0.62-1.43-0.66-1.9c-0.7-7.06,7.01-15.12,6.14-22.51c-0.71-6.04-6.92-9.84-10.04-11.75
		c-1.45-0.89-11.2-6.85-17.35-2.71c-4.41,2.97-4.56,9.52-4.56,9.95c-0.1,11.5,14,15.11,14.61,28.03c0.07,1.58,0.3,6.36-2.74,9.04
		c-2.89,2.55-6.47,1.2-14.61,0.9c-13.55-0.49-15.7,2.83-20.08,0c-5.2-3.36-7.9-11.74-5.48-17.18c2.41-5.41,8.84-5.58,9.13-9.95
		c0.19-2.79-2.28-5.12-5.48-8.14c-5.13-4.84-7.32-3.83-10.04-7.23c-3.18-3.98-1.47-6.97-3.65-14.47c-1.74-5.99-3.99-8.08-6.39-12.66
		c-5.07-9.68-8.92-26.94-1.83-35.26c6.04-7.08,14.9-1.71,21-9.04c5.89-7.08-0.7-14.09,4.56-25.32
		C34.7,127.22,45.03,119.43,54.11,120.17z"/>
	<rect x="47.89" y="191.85" class="st1" width="123" height="36"/>
	<text transform="matrix(1 0 0 1 47.8911 205.3371)" class="st2 st8">YOPOUGON</text>
	<g>
		<path class="st4" d="M17.63,299.01c11.44-10.12,29.13-16.8,34.24-10c2.97,3.95-0.14,10,2.57,12c3.38,2.5,8.99-6.34,20.55-12
			c2.65-1.3,13.65-6.37,26.54-4c8.36,1.53,13.95,5.54,21.4,11c12.55,9.2,12.38,12.97,26.54,26c13.73,12.64,19.45,14.21,29.11,27
			c4.12,5.46,10.59,14.02,8.56,18c-1.69,3.31-8.07,1.13-27.39-2c-14.97-2.43-22.57-3.63-28.25-3c-13.63,1.5-13.3,7.16-29.11,11
			c-12.81,3.11-12.75-0.67-35.96,2c-13.41,1.55-13.8,2.85-23.11,3c-11.97,0.19-15.06-1.9-23.97,0c-11.15,2.38-14.33,7.38-17.12,5.03
			c-4.64-3.91,4.76-17.18,4.28-42.03c-0.25-13.14-3.08-19.61,0.86-29C9.96,305.8,13.81,302.39,17.63,299.01z"/>
	</g>
	<rect x="60.77" y="321.41" class="st1" width="120" height="38"/>
	<text transform="matrix(1 0 0 1 60.7729 334.903)" class="st2 st8">SONGON</text>
	<path class="st7" d="M221.73,206.1c9.11-9.67,30.42-6.59,43.25,0c10.34,5.31,9.95,10.21,21.63,14.5c2.86,1.05,17.36,6.38,24.46,3.7
		c0.16-0.06,0.63-0.24,1.1-0.08c3.67,1.28,4.13,22.33-7.86,30.82c-9.4,6.65-22.88,3.05-27.52,1.81
		c-15.87-4.24-15.09-12.76-33.42-19.94c-13-5.09-19.32-3.12-23.59-9.06C215.37,221.74,216.38,211.78,221.73,206.1z"/>
	<polygon class="st1" points="371.4,267.52 198.71,223.24 257.51,204.16 430.21,248.44 	"/>
	<text transform="matrix(1 0 0 1 236.0273 232.8105)" class="st2 st12">PLATEAU</text>
	<path class="st13" d="M224,275.42c10.07,2.39,14.64,13.1,15.01,14c0.76,1.85,4.39,10.71,0,16c-5.36,6.46-15.93-0.52-28.95,4
		c-19.02,6.59-21.12,30.02-31.1,29c-2.8-0.29-5.8-4.52-11.8-13c-7.88-11.14-11.8-16.84-10.72-23c1.43-8.14,9.06-12.66,9.65-13
		c6.82-3.9,11.56-1.16,21.45-2C207.49,285.72,211.77,272.53,224,275.42z"/>
	<rect x="162.62" y="294.07" class="st1" width="161" height="45"/>
	<text transform="matrix(1 0 0 1 162.625 303.2989)" class="st2 st14">TREICHVILLE</text>
	<path class="st4" d="M240.22,297.08c-4.92-3.16-1.03-10.34,4.04-15.09c7.25-6.79,22.28-13.64,22.27-13.64l0,0
		c1.7,9.85,5.15,10.52,5.15,10.52c1.7,0.33,3.89,0.23,20.04-3.99c19.28-5.04,24.23-7.01,26.48-6.06c3.13,1.32-4.79,5.84-4.99,12.15
		c0,0-0.11,3.59,9.08,11.69l0,0c0,0-0.54,6.3-5.93,9.21c-4.97,2.68-9.69,0.13-22.12,3.04c-7.31,1.71-6.77,2.85-16.11,5.17
		c-8.68,2.15-18.43,3.48-18.43,3.48l0,0c0,0,9.7-10.19,6.13-14.14C262.08,295.27,246.51,301.13,240.22,297.08z"/>
	<rect x="253.34" y="285.57" class="st1" width="202" height="62"/>
	<text transform="matrix(1 0 0 1 253.3433 294.089)" class="st2 st15">MARCORY</text>
	
		<linearGradient id="SVGID_00000183207886355347175680000011555303315973689018_" gradientUnits="userSpaceOnUse" x1="293.439" y1="299.6301" x2="377.2218" y2="299.6301">
		<stop  offset="0" style="stop-color:#FFEF26"/>
		<stop  offset="0.0595" style="stop-color:#FFE000"/>
		<stop  offset="0.1303" style="stop-color:#FFD300"/>
		<stop  offset="0.2032" style="stop-color:#FECB00"/>
		<stop  offset="0.2809" style="stop-color:#FDC800"/>
		<stop  offset="0.6685" style="stop-color:#F18F34"/>
		<stop  offset="0.8876" style="stop-color:#E95F32"/>
		<stop  offset="1" style="stop-color:#E3312D"/>
	</linearGradient>
	<path style="fill:url(#SVGID_00000183207886355347175680000011555303315973689018_);stroke:#020203;stroke-miterlimit:10;" d="
		M295.36,294.28c-3.57,2.88-1.3,4.99,0,22c0.11,1.46,0.26,2.92,0.38,4.38c0.82,9.85,0.68,10.2,1.44,10.62
		c5.85,3.2,39.3-3.86,56.25-19c8.99-8.03,16.33-21,16.33-21l0,0c9.41-8.91,7.26-10,7.26-10c-2.74-1.39-18.16,8.23-25.4,6
		c-3.57-1.1-1.53-3.98-5.44-10c-2.23-3.43-6.07-9.34-12.7-10c-9.91-0.99-23.59,10-23.59,10l0,0c0,0,5.87,6.08,3.63,10
		C311.06,291.55,301.02,289.73,295.36,294.28z"/>
	<rect x="300.21" y="302.55" class="st1" width="130" height="22"/>
	<text transform="matrix(1 0 0 1 300.212 311.0685)" class="st2 st15">KOUMASSI</text>
	
		<linearGradient id="SVGID_00000126280981863813163270000004539069130590705083_" gradientUnits="userSpaceOnUse" x1="243.125" y1="347.5694" x2="582.6462" y2="347.5694">
		<stop  offset="0" style="stop-color:#FFEF26"/>
		<stop  offset="0.0595" style="stop-color:#FFE000"/>
		<stop  offset="0.1303" style="stop-color:#FFD300"/>
		<stop  offset="0.2032" style="stop-color:#FECB00"/>
		<stop  offset="0.2809" style="stop-color:#FDC800"/>
		<stop  offset="0.6685" style="stop-color:#F18F34"/>
		<stop  offset="0.8876" style="stop-color:#E95F32"/>
		<stop  offset="1" style="stop-color:#E3312D"/>
	</linearGradient>
	<path style="fill:url(#SVGID_00000126280981863813163270000004539069130590705083_);stroke:#020203;stroke-miterlimit:10;" d="
		M244.49,349.97c-3.97,7.75,1.45,19.47,7.24,25.84c5.85,6.44,12.77,8.19,18.29,9.59c5.2,1.32,11.37,2.88,14.26-0.32
		c3.66-4.06-0.85-12.6,1.59-14.04c2.41-1.42,6.57,7.04,15.43,9.66c5.81,1.72,8.15-0.69,16.14-1.36c11.55-0.97,12.57,3.58,27.7,5.38
		c5.32,0.63,5.1,0.06,28.52-0.64c9.44-0.28,7.28-0.12,20.91-0.47c33.04-0.84,36.7-1.54,42.85,2.04c4.64,2.7,7.04,5.72,14.46,8.68
		c8.37,3.33,13.73,2.84,15.28,2.66c3.13-0.37,8.6-1.02,12.25-5.27c3.25-3.8,1.42-6.24,4.53-10.1c1.55-1.92,5.76-3.41,14.13-6.32
		c7.37-2.56,11.1-3.83,13.24-3.3c3.18,0.79,3.63,2.5,9.69,7.79c3.92,3.42,8.16,7.12,13.53,9.7c3.95,1.9,7.74,2.48,15.3,3.66
		c11.22,1.74,16.87,2.56,19.01-0.42c2.19-3.04-1.35-6.42,0.7-11.02c2.92-6.55,12.69-5.56,13.11-9.3c0.26-2.33-3.37-4.51-10.66-8.76
		c-8.79-5.13-13.18-7.7-17.29-7.62c-7.95,0.17-10.41,6.13-16.07,4.36c-4.35-1.36-4.2-5.29-8.76-8.81
		c-6.95-5.36-13.21-0.8-22.88-2.49c-12.61-2.2-11.31-11.58-28.04-20.38c-9.36-4.92-8.49-1.31-30.64-9.32
		c-11.93-4.31-13.14-5.71-21.09-7.53c-9.55-2.19-12.59-1.28-19.12-4.57c-7.8-3.93-7.31-7.17-13.51-8.7
		c-8.28-2.05-18.2,1.48-18.86,5.11c-0.01,0.07-0.03,0.18-0.04,0.32c-0.09,2.97,6.84,4.89,10.61,6.76
		c7.42,3.69,5.14,8.48,18.64,25.59c0.03,0.03,2.95,3.62,8.8,10.81l0,0l0,0c-8.32,4.98-8.65,5.15-9.39,5.21
		c-6.29,0.55-7.43-9.3-17.42-13.61c-7.27-3.13-11.22,0.11-14.35-3.68c-2.73-3.31-0.62-6.89-1.33-16.97
		c-0.41-5.81-2.01-17.47-5.16-17.89c-3.39-0.45-3.63,12.81-13.84,19.31c-4.74,3.02-6.58,1.36-15.1,5.34
		c-6.78,3.17-7.14,4.93-13.13,8.3c-5.14,2.89-17.99,10.11-28.41,5.64c-7.52-3.23-6.34-9.37-12.6-10.72
		c-6.31-1.36-8.98,4.55-25.38,13.57C248.41,346.74,246.26,346.52,244.49,349.97z"/>
	<rect x="342" y="356" class="st1" width="189" height="31"/>
	<text transform="matrix(1 0 0 1 342 368.0698)" class="st2 st18">PORT-BOUET</text>
</g>
</svg>
